<svg width="20" height="20" viewBox="0 0 20 20" fill="none" xmlns="http://www.w3.org/2000/svg">
<mask id="path-1-inside-1_55_6893" fill="white">
<path d="M7.27116 15.5209C7.10449 15.5209 6.93783 15.4375 6.85449 15.3542C6.60449 15.1042 6.60449 14.6875 6.85449 14.4375L11.4378 9.85419L6.85449 5.27085C6.60449 5.02085 6.60449 4.60419 6.85449 4.35419C7.10449 4.10419 7.52116 4.10419 7.77116 4.35419L12.7712 9.35419C13.0212 9.60419 13.0212 10.0209 12.7712 10.2709L7.77116 15.2709C7.60449 15.4375 7.43783 15.5209 7.27116 15.5209Z"/>
</mask>
<path d="M7.27116 15.5209C7.10449 15.5209 6.93783 15.4375 6.85449 15.3542C6.60449 15.1042 6.60449 14.6875 6.85449 14.4375L11.4378 9.85419L6.85449 5.27085C6.60449 5.02085 6.60449 4.60419 6.85449 4.35419C7.10449 4.10419 7.52116 4.10419 7.77116 4.35419L12.7712 9.35419C13.0212 9.60419 13.0212 10.0209 12.7712 10.2709L7.77116 15.2709C7.60449 15.4375 7.43783 15.5209 7.27116 15.5209Z" fill="#2D2D2D"/>
<path d="M6.85449 15.3542L5.79383 16.4148L6.85449 15.3542ZM6.85449 14.4375L7.91515 15.4982L6.85449 14.4375ZM11.4378 9.85419L12.4985 10.9148L13.5591 9.85419L12.4985 8.79353L11.4378 9.85419ZM6.85449 5.27085L5.79383 6.33151L6.85449 5.27085ZM7.77116 4.35419L8.83182 3.29353L7.77116 4.35419ZM12.7712 9.35419L11.7105 10.4148L12.7712 9.35419ZM12.7712 10.2709L11.7105 9.21019L12.7712 10.2709ZM7.77116 15.2709L8.83182 16.3315L7.77116 15.2709ZM7.27116 14.0209C7.42914 14.0209 7.54727 14.0578 7.62246 14.0901C7.69122 14.1195 7.79816 14.1765 7.91515 14.2935L5.79383 16.4148C6.13953 16.7605 6.68066 17.0209 7.27116 17.0209V14.0209ZM7.91515 14.2935C8.25094 14.6293 8.25094 15.1624 7.91515 15.4982L5.79383 13.3769C4.95805 14.2126 4.95805 15.5791 5.79383 16.4148L7.91515 14.2935ZM7.91515 15.4982L12.4985 10.9148L10.3772 8.79353L5.79383 13.3769L7.91515 15.4982ZM12.4985 8.79353L7.91515 4.21019L5.79383 6.33151L10.3772 10.9148L12.4985 8.79353ZM7.91515 4.21019C8.25094 4.54598 8.25094 5.07906 7.91515 5.41485L5.79383 3.29353C4.95805 4.12931 4.95805 5.49573 5.79383 6.33151L7.91515 4.21019ZM7.91515 5.41485C7.57937 5.75063 7.04629 5.75063 6.7105 5.41485L8.83182 3.29353C7.99603 2.45774 6.62962 2.45774 5.79383 3.29353L7.91515 5.41485ZM6.7105 5.41485L11.7105 10.4148L13.8318 8.29353L8.83182 3.29353L6.7105 5.41485ZM11.7105 10.4148C11.3747 10.0791 11.3747 9.54598 11.7105 9.21019L13.8318 11.3315C14.6676 10.4957 14.6676 9.12931 13.8318 8.29353L11.7105 10.4148ZM11.7105 9.21019L6.7105 14.2102L8.83182 16.3315L13.8318 11.3315L11.7105 9.21019ZM6.7105 14.2102C6.71239 14.2083 6.75709 14.1633 6.85034 14.1167C6.95044 14.0667 7.09535 14.0209 7.27116 14.0209V17.0209C7.97596 17.0209 8.50165 16.6617 8.83182 16.3315L6.7105 14.2102Z" fill="#CF5555" mask="url(#path-1-inside-1_55_6893)"/>
</svg>
