<svg width="24" height="25" viewBox="0 0 24 25" fill="none" xmlns="http://www.w3.org/2000/svg">
<g clip-path="url(#clip0_577_2737)">
<path d="M23.5 12.5532C23.5 18.9045 18.3513 24.0532 12 24.0532C5.64873 24.0532 0.5 18.9045 0.5 12.5532C0.5 6.20195 5.64873 1.05322 12 1.05322C18.3513 1.05322 23.5 6.20195 23.5 12.5532Z" stroke="#2D2D2D"/>
<path fill-rule="evenodd" clip-rule="evenodd" d="M5.43177 12.4265C8.93001 10.9024 11.2627 9.89762 12.4299 9.41215C15.7624 8.02604 16.4549 7.78526 16.9062 7.77731C17.0055 7.77556 17.2275 7.80016 17.3712 7.91682C17.4926 8.01533 17.526 8.1484 17.542 8.2418C17.558 8.33519 17.5779 8.54795 17.5621 8.7142C17.3815 10.6117 16.6001 15.2164 16.2026 17.3416C16.0343 18.2408 15.7031 18.5423 15.3825 18.5719C14.6856 18.636 14.1564 18.1113 13.4815 17.6689C12.4253 16.9766 11.8287 16.5456 10.8035 15.87C9.61872 15.0893 10.3868 14.6601 11.062 13.9589C11.2387 13.7753 14.3091 10.9826 14.3685 10.7292C14.3759 10.6975 14.3828 10.5794 14.3126 10.5171C14.2425 10.4547 14.1389 10.476 14.0642 10.493C13.9583 10.517 12.271 11.6322 9.00252 13.8386C8.52361 14.1674 8.08982 14.3277 7.70117 14.3193C7.2727 14.31 6.44851 14.077 5.83582 13.8778C5.08431 13.6335 4.48704 13.5044 4.53905 13.0895C4.56614 12.8734 4.86371 12.6524 5.43177 12.4265Z" fill="#2D2D2D"/>
</g>
<defs>
<clipPath id="clip0_577_2737">
<rect width="24" height="24" fill="white" transform="translate(0 0.553223)"/>
</clipPath>
</defs>
</svg>
